
<svg width="66px" height="66px" viewBox="682 304 66 66" version="1.1" xmlns="http://www.w3.org/2000/svg" xmlns:xlink="http://www.w3.org/1999/xlink">
    <!-- Generator: Sketch 3.7.2 (28276) - http://www.bohemiancoding.com/sketch -->
    <desc>Created with Sketch.</desc>
    <defs>
        <polygon id="path-1" points="0 4.34210526 8.68421053 14.7631579 14.7631579 9.55263158 6.07894737 0"></polygon>
        <path d="M11.2972895,4.54097368 C22.4382632,-6.01468421 22.9124211,-23.6036842 12.3567632,-34.7446579 C1.80110526,-45.8865 -15.7878947,-46.3606579 -26.9288684,-35.805 C-38.0698421,-25.2493421 -38.544,-7.66034211 -27.9883421,3.48063158 C-17.4326842,14.6224737 0.156315789,15.0975 11.2972895,4.54097368 L11.2972895,4.54097368" id="path-3"></path>
        <filter x="-50%" y="-50%" width="200%" height="200%" filterUnits="objectBoundingBox" id="filter-4">
            <feMorphology radius="6" operator="dilate" in="SourceAlpha" result="shadowSpreadOuter1"></feMorphology>
            <feOffset dx="0" dy="0" in="shadowSpreadOuter1" result="shadowOffsetOuter1"></feOffset>
            <feMorphology radius="6" operator="erode" in="SourceAlpha" result="shadowInner"></feMorphology>
            <feOffset dx="0" dy="0" in="shadowInner" result="shadowInner"></feOffset>
            <feComposite in="shadowOffsetOuter1" in2="shadowInner" operator="out" result="shadowOffsetOuter1"></feComposite>
            <feGaussianBlur stdDeviation="1" in="shadowOffsetOuter1" result="shadowBlurOuter1"></feGaussianBlur>
            <feColorMatrix values="0 0 0 0 0   0 0 0 0 0   0 0 0 0 0  0 0 0 1 0" type="matrix" in="shadowBlurOuter1"></feColorMatrix>
        </filter>
    </defs>
    <g id="Move-Table-Cell-Progress-Icon" stroke="none" stroke-width="1" fill="none" fill-rule="evenodd" transform="translate(682.000000, 304.000000)">
        <path d="M33,10.4210526 C45.4496842,10.4210526 55.5789474,20.5503158 55.5789474,33 C55.5789474,45.4496842 45.4496842,55.5789474 33,55.5789474 C20.5503158,55.5789474 10.4210526,45.4496842 10.4210526,33 C10.4210526,20.5503158 20.5503158,10.4210526 33,10.4210526 L33,10.4210526 Z M33,0 C14.7744474,0 0,14.7744474 0,33 C0,51.2255526 14.7744474,66 33,66 C51.2255526,66 66,51.2255526 66,33 C66,14.7744474 51.2255526,0 33,0 L33,0 L33,0 Z" id="Move-Table-Cell-Progress-Ring" fill="#000000"></path>
        <g id="Progress-Ring-Overlap-Shadow" transform="translate(40.815789, 48.631579)">
            <mask id="mask-2" fill="white">
                <use xlink:href="#path-1"></use>
            </mask>
            <g id="Clip-Frame" style="mix-blend-mode: multiply;"></g>
        </g>
        <path d="M43.9846579,32.4363947 L34.4320263,22.8837632 C33.8805789,22.3323158 32.9869737,22.3323158 32.4355263,22.8837632 C31.8849474,23.4352105 31.8849474,24.3288158 32.4355263,24.8802632 L39.6885789,32.1324474 L23.8815789,32.1324474 C23.1616579,32.1324474 22.5789474,32.7151579 22.5789474,33.4350789 C22.5789474,34.155 23.1616579,34.7377105 23.8815789,34.7377105 L39.6885789,34.7377105 L32.4355263,41.9898947 C31.8849474,42.5413421 31.8849474,43.4349474 32.4355263,43.9863947 C32.7108158,44.2616842 33.0720789,44.3997632 33.4333421,44.3997632 C33.7946053,44.3997632 34.1558684,44.2625526 34.4311579,43.9863947 L43.9837895,34.4337632 C44.5352368,33.8814474 44.5352368,32.9869737 43.9846579,32.4363947 L43.9846579,32.4363947 Z" id="Move-Arrow-Icon" fill="#000000"></path>
    </g>
</svg>